<?xml version="1.0" encoding="UTF-8"?>
<svg id="uuid-e527866c-e353-44a0-853b-d5ba64fb8feb" data-name="Calque 1" xmlns="http://www.w3.org/2000/svg" viewBox="0 0 57.0825 8.647">
  <path d="M0,.5396c.48-.0962,1.4512-.168,2.3628-.168,1.1152,0,1.7988,.1079,2.3867,.4556,.5635,.2998,.9712,.8516,.9712,1.5835,0,.7192-.4194,1.3911-1.3311,1.7271v.0239c.9233,.252,1.6069,.9473,1.6069,1.9907,0,.7314-.3354,1.3076-.8394,1.7153-.5879,.4678-1.5713,.7314-3.1782,.7314-.8994,0-1.5713-.0601-1.979-.1201V.5396ZM1.811,3.6338h.5996c.9595,0,1.4751-.3955,1.4751-.9956,0-.6113-.4678-.9351-1.2949-.9351-.396,0-.624,.0239-.7798,.0479v1.8828Zm0,3.5859c.1802,.0239,.396,.0239,.7075,.0239,.8276,0,1.5591-.3115,1.5591-1.1631,0-.8154-.7314-1.1396-1.6431-1.1396h-.6235v2.2788Z" style="fill: #fff;"/>
  <path d="M7.188,0h1.8232V8.5151h-1.8232V0Z" style="fill: #fff;"/>
  <path d="M12.3711,1.019c0,.5039-.3838,.9116-.9834,.9116-.5762,0-.96-.4077-.9478-.9116-.0122-.5273,.3716-.9233,.9595-.9233s.9595,.396,.9717,.9233Zm-1.8833,7.4961V2.6504h1.8232v5.8647h-1.8232Z" style="fill: #fff;"/>
  <path d="M13.7754,4.5215c0-.7319-.0239-1.3555-.0479-1.8711h1.583l.084,.8037h.0361c.2397-.3721,.8394-.9355,1.811-.9355,1.1992,0,2.0986,.7915,2.0986,2.5186v3.478h-1.8228v-3.25c0-.7559-.2642-1.2715-.9238-1.2715-.5034,0-.8032,.3477-.9233,.6836-.0479,.1079-.0718,.2876-.0718,.4556v3.3823h-1.8232v-3.9937Z" style="fill: #fff;"/>
  <path d="M29.1807,8.2515c-.3838,.1919-1.1514,.3838-2.1348,.3838-2.2788,0-3.9941-1.4395-3.9941-4.0898,0-2.5308,1.7153-4.2456,4.2217-4.2456,1.0078,0,1.6431,.2158,1.9189,.3599l-.252,.8511c-.3955-.1914-.9595-.3354-1.6309-.3354-1.895,0-3.1543,1.2114-3.1543,3.334,0,1.979,1.1392,3.2505,3.1064,3.2505,.6357,0,1.2832-.1323,1.7031-.3359l.2158,.8276Z" style="fill: #fff;"/>
  <path d="M30.9116,5.8047c.0239,1.4272,.9351,2.0146,1.9907,2.0146,.7554,0,1.2114-.1318,1.6069-.2998l.1802,.7559c-.3721,.168-1.0073,.3599-1.9312,.3599-1.7871,0-2.8545-1.1753-2.8545-2.9268s1.0317-3.1299,2.7227-3.1299c1.895,0,2.3989,1.667,2.3989,2.7344,0,.2158-.0244,.3838-.0361,.4917h-4.0776Zm3.0942-.7559c.0117-.6714-.2759-1.7148-1.4634-1.7148-1.0674,0-1.5352,.9834-1.6191,1.7148h3.0825Zm.252-4.8452l-1.4634,1.7153h-.7554l1.0552-1.7153h1.1636Z" style="fill: #fff;"/>
  <path d="M40.4731,8.2993c-.2759,.144-.8872,.3359-1.667,.3359-1.751,0-2.8906-1.1875-2.8906-2.9624,0-1.7871,1.2236-3.0825,3.1187-3.0825,.6235,0,1.1753,.1558,1.4629,.2998l-.2397,.8154c-.252-.1436-.6475-.2759-1.2231-.2759-1.3315,0-2.0513,.9839-2.0513,2.1948,0,1.3433,.8638,2.1709,2.0151,2.1709,.5996,0,.9956-.1558,1.2954-.2876l.1797,.7915Z" style="fill: #fff;"/>
  <path d="M42.8867,1.0791c.0122,.3599-.252,.6479-.6714,.6479-.3721,0-.6357-.2881-.6357-.6479,0-.3716,.2759-.6597,.6597-.6597,.3955,0,.6475,.2881,.6475,.6597Zm-1.1753,7.436V2.7104h1.0557v5.8047h-1.0557Z" style="fill: #fff;"/>
  <path d="M44.5195,0h1.0557V8.5151h-1.0557V0Z" style="fill: #fff;"/>
  <path d="M47.9395,5.8047c.0239,1.4272,.9355,2.0146,1.9907,2.0146,.7554,0,1.2114-.1318,1.6069-.2998l.1802,.7559c-.3721,.168-1.0073,.3599-1.9312,.3599-1.7871,0-2.8545-1.1753-2.8545-2.9268s1.0317-3.1299,2.7227-3.1299c1.895,0,2.3989,1.667,2.3989,2.7344,0,.2158-.0244,.3838-.0361,.4917h-4.0776Zm3.0942-.7559c.0117-.6714-.2759-1.7148-1.4634-1.7148-1.0674,0-1.5352,.9834-1.6191,1.7148h3.0825Z" style="fill: #fff;"/>
  <path d="M55.6553,7.8916c0-.4438,.2998-.7559,.7197-.7559s.7075,.312,.7075,.7559c0,.4316-.2759,.7554-.7197,.7554-.4194,0-.7075-.3237-.7075-.7554Z" style="fill: #3b82f6;"/>
</svg>